<?xml version="1.0" encoding="UTF-8"?>
<svg xmlns="http://www.w3.org/2000/svg" id="Layer_1" data-name="Layer 1" viewBox="0 0 24 24">
  <path d="M22.98,11.951c-.801-2.753-2.122-4.876-3.912-6.331l1.951-1.957c.194-.195,.194-.512,0-.707-.195-.194-.513-.195-.708,0l-2.059,2.065c-1.722-1.124-3.814-1.711-6.241-1.732h-.009c-5.667,.048-9.362,2.942-10.981,8.602-.026,.09-.026,.185,0,.274,.784,2.756,2.072,4.851,3.851,6.277l-1.888,1.894c-.195,.195-.195,.512,0,.707,.098,.097,.394,.272,.707,0l2.003-2.009c1.718,1.096,3.826,1.657,6.316,1.676,5.681-.045,9.372-2.899,10.971-8.482,.026-.091,.026-.187,0-.277Zm-20.96,.079c1.503-5.091,4.862-7.695,9.985-7.74,2.157,.02,4.003,.505,5.531,1.449l-2.54,2.547c-.752-.571-1.759-.873-3-.881-2.943,.018-4.58,1.693-4.58,4.604,0,1.255,.316,2.261,.868,3.009l-2.712,2.72c-1.631-1.274-2.808-3.171-3.552-5.708Zm13.562-.039c-.045,2.444-1.185,3.59-3.58,3.604-.969-.005-1.733-.196-2.302-.581l5.278-5.294c.385,.573,.587,1.33,.604,2.27Zm-7.166,.009c.046-2.404,1.219-3.58,3.58-3.595,.946,.006,1.707,.208,2.28,.603l-5.276,5.292c-.373-.57-.565-1.333-.583-2.3Zm3.592,7.71c-2.212-.017-4.073-.479-5.598-1.396l2.577-2.584c.748,.565,1.757,.858,3.015,.865,2.941-.018,4.525-1.603,4.58-4.604-.021-1.238-.323-2.244-.882-2.995l2.667-2.674c1.642,1.303,2.849,3.228,3.611,5.769-1.502,5.085-4.767,7.577-9.969,7.619Z"/>
</svg>
