<?xml version="1.0" encoding="UTF-8"?>
<svg xmlns="http://www.w3.org/2000/svg" id="Layer_1" data-name="Layer 1" viewBox="0 0 24 24">
  <path d="M20.656,4.719c-1.171-1.096-2.693-1.69-4.206-1.628-1.346,.055-2.588,.637-3.495,1.639l-.955,1.053-.955-1.053c-.907-1.001-2.149-1.583-3.495-1.639-1.506-.063-3.035,.532-4.206,1.628-1.101,1.031-2.375,3.125-2.343,5.637,.032,2.557,1.358,5.018,3.941,7.313,.869,.773,1.9,1.495,3.154,2.205,1.201,.68,2.551,1.04,3.903,1.04s2.702-.36,3.903-1.04c1.254-.71,2.285-1.431,3.154-2.205,2.583-2.296,3.909-4.756,3.941-7.313,.032-2.512-1.242-4.606-2.343-5.636Zm-2.263,12.203c-.816,.726-1.792,1.407-2.982,2.082-2.104,1.19-4.719,1.19-6.822,0-1.19-.675-2.166-1.356-2.982-2.082-2.363-2.102-3.577-4.315-3.605-6.58-.037-2.878,1.814-4.695,2.026-4.894,.931-.872,2.127-1.362,3.308-1.362s2.232,.502,2.97,1.315l1.325,1.462c.189,.209,.551,.209,.74,0l1.325-1.462c.737-.813,1.704-1.267,2.796-1.311,1.219-.046,2.505,.444,3.481,1.358h0c.212,.198,2.063,2.016,2.026,4.894-.028,2.265-1.242,4.478-3.605,6.58Z"/>
</svg>
