<?xml version="1.0" encoding="UTF-8"?>
<svg xmlns="http://www.w3.org/2000/svg" id="Layer_1" data-name="Layer 1" viewBox="0 0 24 24">
  <path d="M12,1C6.891,1,1.026,2.25,1.026,12c0,7.71,3.282,11,10.974,11,5.109,0,10.974-1.25,10.974-11,0-7.71-3.282-11-10.974-11Zm0,21c-7.084,0-9.974-2.897-9.974-10S4.916,2,12,2s9.974,2.897,9.974,10-2.89,10-9.974,10Z"/>
  <path d="M16.733,6.909c-.241-.038-5.948-.867-10.955,4.153-.384,.386-.375,.726-.3,.942,.231,.666,1.285,.79,2.743,.963,.84,.1,2.11,.25,2.373,.512,.266,.265,.421,1.545,.524,2.393,.183,1.506,.306,2.495,.964,2.729,.3,.107,.668-.038,.924-.294,5.007-5.02,4.18-10.739,4.142-10.98-.034-.215-.202-.383-.417-.417Zm-4.333,10.59c-.123-.394-.219-1.187-.288-1.748-.182-1.492-.336-2.506-.811-2.98-.508-.506-1.7-.646-2.961-.796-.571-.067-1.379-.163-1.77-.288,3.9-3.85,8.317-3.908,9.626-3.824,.08,1.307,.027,5.729-3.797,9.637Z"/>
</svg>
