<?xml version="1.0" encoding="UTF-8"?>
<svg xmlns="http://www.w3.org/2000/svg" id="Layer_1" data-name="Layer 1" viewBox="0 0 24 24">
  <path d="M13.657,7.533c0,.276,.224,.5,.5,.5,.886,0,1.606,.735,1.606,1.638,0,.276,.224,.5,.5,.5s.5-.224,.5-.5c0-1.455-1.169-2.638-2.606-2.638-.276,0-.5,.224-.5,.5Z"/>
  <path d="M13.873,3.75c3.444,0,6.247,2.848,6.247,6.348,0,.276,.224,.5,.5,.5s.5-.224,.5-.5c0-4.051-3.251-7.348-7.247-7.348-.276,0-.5,.224-.5,.5s.224,.5,.5,.5Z"/>
  <path d="M22.788,16.313c-.448-1.376-1.562-2.456-2.978-2.888-1.621-.497-3.378-.079-4.582,1.087l-.422,.409c-1.199-.301-2.805-1.445-3.56-2.169-.766-.784-1.894-2.385-2.193-3.534l.409-.415c1.178-1.197,1.599-2.94,1.098-4.552-.437-1.406-1.525-2.51-2.912-2.954-1.594-.511-3.319-.083-4.463,1.083-.112,.093-2.742,2.317-2.08,5.897,.674,3.417,3.116,7.145,5.25,9.336,2.2,2.105,5.959,4.527,9.404,5.194,.401,.073,.785,.106,1.152,.106,2.804,0,4.556-1.906,4.765-2.146,1.2-1.173,1.625-2.878,1.111-4.456Zm-1.823,3.753c-.012,.012-.024,.024-.035,.037-.02,.023-1.951,2.271-4.985,1.722-3.223-.624-6.871-2.995-8.884-4.922-1.953-2.006-4.342-5.622-4.972-8.814-.553-2.986,1.642-4.862,1.772-4.974,.661-.67,1.54-1.03,2.441-1.03,.348,0,.7,.053,1.043,.163,1.076,.345,1.922,1.204,2.262,2.298,.391,1.258,.063,2.62-.855,3.553l-.598,.606c-.112,.114-.163,.274-.138,.431,.233,1.437,1.612,3.387,2.528,4.324,.935,.898,2.9,2.266,4.343,2.496,.154,.025,.313-.025,.427-.135l.611-.592c.942-.913,2.317-1.241,3.594-.85,1.105,.338,1.972,1.176,2.319,2.242,.397,1.219,.063,2.538-.872,3.444Z"/>
</svg>
